<?xml version="1.0" encoding="UTF-8"?>
<svg width="48" height="48" fill="none" version="1.1" viewBox="0 0 48 48" xmlns="http://www.w3.org/2000/svg"><path d="m32.2 17.3c0 0.828-0.672 1.5-1.5 1.5s-1.5-0.672-1.5-1.5 0.672-1.5 1.5-1.5c0.832 0 1.5 0.672 1.5 1.5zm-8.17 10.8c-2.3 0-4.17-1.86-4.17-4.17s1.86-4.17 4.17-4.17 4.17 1.86 4.17 4.17-1.87 4.17-4.17 4.17zm0-10.6c-3.55 0-6.42 2.87-6.42 6.42 0 3.55 2.87 6.42 6.42 6.42 3.55 0 6.42-2.87 6.42-6.42 0-3.55-2.87-6.42-6.42-6.42zm0-3.83c3.34 0 3.73 0.0109 5.05 0.0727 1.22 0.0545 1.88 0.258 2.32 0.429 0.585 0.225 0.999 0.498 1.44 0.934 0.436 0.436 0.708 0.854 0.934 1.44 0.171 0.44 0.374 1.1 0.429 2.32 0.0618 1.32 0.0727 1.72 0.0727 5.05 0 3.34-0.0109 3.73-0.0727 5.05-0.0545 1.22-0.258 1.88-0.429 2.32-0.225 0.585-0.498 0.999-0.934 1.44-0.436 0.436-0.854 0.708-1.44 0.934-0.44 0.171-1.1 0.374-2.32 0.429-1.32 0.0618-1.72 0.0727-5.05 0.0727-3.34 0-3.73-0.0109-5.05-0.0727-1.22-0.0545-1.88-0.258-2.32-0.429-0.585-0.225-0.999-0.498-1.44-0.934-0.436-0.436-0.709-0.854-0.934-1.44-0.171-0.44-0.374-1.1-0.429-2.32-0.0618-1.32-0.0727-1.72-0.0727-5.05 0-3.34 0.0109-3.73 0.0727-5.05 0.0545-1.22 0.258-1.88 0.429-2.32 0.225-0.585 0.498-0.999 0.934-1.44 0.436-0.436 0.854-0.709 1.44-0.934 0.44-0.171 1.1-0.374 2.32-0.429 1.32-0.0618 1.72-0.0727 5.05-0.0727zm0-2.25c-3.39 0-3.82 0.0145-5.15 0.0763-1.33 0.0618-2.24 0.273-3.03 0.581-0.821 0.316-1.52 0.745-2.22 1.44-0.698 0.694-1.12 1.39-1.44 2.21-0.309 0.796-0.52 1.7-0.581 3.03-0.0581 1.34-0.0727 1.76-0.0727 5.16s0.0145 3.82 0.0763 5.15c0.0618 1.33 0.273 2.24 0.581 3.03 0.32 0.821 0.749 1.52 1.44 2.21 0.694 0.694 1.39 1.12 2.21 1.44 0.796 0.309 1.7 0.52 3.03 0.581 1.33 0.0618 1.76 0.0763 5.15 0.0763s3.82-0.0145 5.15-0.0763c1.33-0.0618 2.24-0.272 3.03-0.581 0.821-0.32 1.52-0.748 2.21-1.44 0.694-0.694 1.12-1.39 1.44-2.21 0.309-0.796 0.52-1.7 0.581-3.03 0.0618-1.33 0.0763-1.76 0.0763-5.15s-0.0145-3.82-0.0763-5.15c-0.0618-1.33-0.272-2.24-0.581-3.03-0.32-0.821-0.748-1.52-1.44-2.21-0.694-0.694-1.39-1.12-2.21-1.44-0.796-0.309-1.7-0.52-3.03-0.581-1.33-0.0618-1.76-0.0763-5.15-0.0763z" fill="url(#paint0_radial)"/><defs><radialGradient id="paint0_radial" cx="0" cy="0" r="1" gradientTransform="matrix(31.9 0 0 31.9 15.2 36.6)" gradientUnits="userSpaceOnUse"><stop stop-color="#FAAF42" offset="0"/><stop stop-color="#F0564A" offset=".256"/><stop stop-color="#ED3381" offset=".599"/><stop stop-color="#834C9D" offset="1"/></radialGradient></defs></svg>
