<?xml version="1.0" encoding="UTF-8"?>
<svg version="1.1" viewBox="0 0 50 50" width="50" height="50" xmlns="http://www.w3.org/2000/svg"><path d="m32 42.3c-0.914-0.221-2.58-1.1-4.85-2.56-3.46-2.22-6.21-4.46-9.36-7.62-3.17-3.18-5.32-5.83-7.51-9.27-2.6-4.08-3.08-5.52-2.55-7.75 0.279-1.18 0.829-2.11 2-3.35l1.04-1.11 4.33 4.32c2.38 2.37 4.33 4.36 4.33 4.41 0 0.0543-0.2 0.299-0.445 0.544-0.854 0.854-0.833 1.08 0.252 2.71 1.74 2.61 4.28 5.3 6.7 7.1 2.88 2.15 3.14 2.23 4.06 1.39 0.311-0.287 0.609-0.521 0.663-0.521 0.0535 0 2.04 1.95 4.41 4.33l4.32 4.33-1.09 1.03c-0.598 0.568-1.42 1.21-1.83 1.43-1.38 0.734-2.96 0.937-4.46 0.574zm4.47-8.84c-2.36-2.36-4.28-4.35-4.28-4.42 0-0.2 1.18-1.16 1.68-1.37 0.604-0.252 1.77-0.227 2.39 0.0516 0.656 0.298 5.45 5.06 5.84 5.8 0.384 0.732 0.392 1.96 0.0166 2.66-0.278 0.523-1.12 1.56-1.27 1.56-0.0466 0-2.01-1.93-4.37-4.29zm2.57-6.18-0.693-0.693 0.469-0.707c1.12-1.69 1.68-3.68 1.66-5.9-0.0167-1.77-0.309-2.98-1.1-4.57-1.8-3.6-5.32-5.82-9.32-5.85-2.22-0.021-4.23 0.541-5.88 1.64l-0.727 0.486-1.43-1.44 0.61-0.454c0.964-0.717 2.77-1.55 4.12-1.9 6.46-1.66 13 1.93 15.2 8.3 1.19 3.52 0.609 7.83-1.47 10.9-0.283 0.417-0.562 0.787-0.618 0.822-0.0565 0.0349-0.415-0.249-0.796-0.63zm-13.5-4.38c-0.259-0.103-0.418-0.645-0.271-0.921 0.0704-0.132 0.666-0.976 1.32-1.88 0.657-0.9 1.34-1.91 1.51-2.25 0.283-0.545 0.302-0.658 0.164-0.99-0.212-0.512-0.42-0.658-0.941-0.658-0.53 0-0.763 0.171-1.04 0.768-0.355 0.757-1.27 0.656-1.27-0.139 0-0.637 0.598-1.46 1.34-1.84 0.346-0.178 1.41-0.182 1.88-0.0076 0.505 0.191 1.14 0.842 1.3 1.34 0.36 1.09 0.0843 1.89-1.32 3.86-0.518 0.723-0.942 1.34-0.942 1.37 0 0.0301 0.507 0.0547 1.13 0.0547 0.959 0 1.16 0.0371 1.38 0.25 0.301 0.301 0.313 0.48 0.0555 0.848-0.188 0.268-0.266 0.278-2.16 0.268-1.08-0.0054-2.04-0.0395-2.13-0.0757zm9.2-0.0496c-0.175-0.102-0.219-0.301-0.219-0.997v-0.87h-1.5c-1.33 0-1.53-0.0278-1.75-0.25-0.138-0.138-0.25-0.325-0.25-0.417 0-0.262 2.58-4.71 2.97-5.11 0.468-0.488 1.2-0.458 1.59 0.0665 0.237 0.318 0.266 0.545 0.294 2.31l0.0308 1.95 0.384 0.161c0.344 0.145 0.38 0.209 0.345 0.633-0.034 0.411-0.0914 0.487-0.446 0.592-0.402 0.118-0.407 0.128-0.407 0.898 0 1.04-0.377 1.42-1.03 1.04zm-0.219-4.56c0-0.771-0.0479-1.29-0.115-1.25-0.0632 0.0391-0.324 0.451-0.58 0.914-0.256 0.464-0.574 1.03-0.708 1.25l-0.244 0.407h1.65zm-18-4.75-4.32-4.32 0.587-0.537c0.842-0.771 1.39-1 2.35-1 0.601 6.63e-4 0.954 0.0747 1.35 0.283 0.74 0.389 5.5 5.18 5.8 5.84 0.295 0.65 0.301 1.85 0.0119 2.46-0.258 0.546-1.14 1.61-1.33 1.61-0.0756 0-2.08-1.95-4.45-4.32z" fill="#11bb91" stroke-width=".125"/></svg>
