<?xml version="1.0" encoding="UTF-8"?>
<svg version="1.1" viewBox="0 0 50 50" width="50" height="50" xmlns="http://www.w3.org/2000/svg"><path d="m22.9 42.3c-0.537-0.27-1.15-1-1.24-1.49-0.0731-0.39-0.948-10.8-0.948-11.2 0-0.186-0.113-0.222-0.694-0.222-0.738 0-1.35-0.236-1.48-0.568-0.0427-0.111-0.0776-0.401-0.0776-0.644 0-0.897 1.01-8.19 1.18-8.51 0.197-0.379 0.628-0.798 1.03-1.01 0.15-0.0773 0.788-0.141 1.42-0.141h1.15l1.73 1.67 1.73-1.67h1.15c0.63 0 1.27 0.0633 1.42 0.141 0.405 0.208 0.837 0.628 1.03 1 0.165 0.317 1.18 7.66 1.18 8.54 0 0.234-0.0349 0.517-0.0776 0.629-0.128 0.333-0.741 0.568-1.48 0.568-0.577 0-0.694 0.0368-0.694 0.219-0.0013 0.494-0.881 10.9-0.955 11.3-0.104 0.556-0.98 1.44-1.54 1.55-0.827 0.165-3.42 0.0926-3.82-0.107zm-11-2.21c-0.404-0.223-0.823-0.641-1.02-1.01-0.153-0.294-0.661-4.58-0.99-8.34-0.126-1.44-0.0818-1.38-0.943-1.38-0.67 0-0.799-0.042-1.12-0.365-0.201-0.201-0.365-0.462-0.365-0.58 0-0.726 1.04-8.21 1.2-8.65 0.117-0.317 0.378-0.672 0.644-0.875 0.408-0.312 0.559-0.345 1.73-0.384l1.28-0.0423 1.71 1.63 1.66-1.61h1.03c0.928 0 1.02 0.0208 0.935 0.219-0.303 0.73-0.467 1.68-0.951 5.51-0.474 3.75-0.521 4.33-0.387 4.84 0.209 0.78 0.68 1.45 1.27 1.82 0.273 0.169 0.498 0.397 0.5 0.508 0.0139 0.832-0.771 7.42-0.918 7.7-0.235 0.451-0.679 0.858-1.12 1.02-0.468 0.177-3.82 0.167-4.15-0.0126zm21.9 0c-0.403-0.223-0.823-0.641-1.01-1.01-0.144-0.277-0.931-6.9-0.918-7.72 0.0017-0.103 0.246-0.335 0.544-0.515 0.666-0.404 1.33-1.61 1.33-2.41 0-0.283-0.167-1.78-0.371-3.32-0.204-1.54-0.434-3.34-0.511-3.98-0.127-1.06-0.297-1.8-0.554-2.42-0.0822-0.198 0.0061-0.219 0.923-0.219h1.01l1.69 1.61 1.69-1.63 1.29 0.0426c1.18 0.039 1.33 0.072 1.74 0.384 0.269 0.205 0.525 0.554 0.641 0.875 0.16 0.441 1.2 7.94 1.2 8.65 0 0.119-0.164 0.38-0.365 0.581-0.323 0.323-0.453 0.365-1.12 0.365-0.909 0-0.746-0.627-1.32 5.09-0.274 2.71-0.498 4.4-0.613 4.62-0.236 0.454-0.679 0.861-1.12 1.03-0.468 0.177-3.82 0.167-4.15-0.0126zm-21.1-24.1c-0.943-0.299-1.94-1.16-2.48-2.14-0.344-0.621-0.37-0.76-0.37-1.98 0-1.18 0.0331-1.38 0.336-1.95 0.512-0.97 1.57-1.87 2.56-2.17 1.04-0.321 1.68-0.319 2.74 0.0096 0.718 0.222 0.969 0.382 1.62 1.03 0.949 0.95 1.31 1.8 1.31 3.08 0 1.28-0.36 2.13-1.3 3.07-0.626 0.623-0.911 0.805-1.61 1.03-1.03 0.335-1.78 0.339-2.8 0.0157zm11.1 0.0853c-1.29-0.422-2.2-1.22-2.77-2.45-0.271-0.577-0.325-0.872-0.325-1.76 0-0.95 0.0442-1.15 0.407-1.89 0.474-0.963 1.15-1.62 2.14-2.09 0.586-0.275 0.878-0.329 1.77-0.329s1.18 0.0545 1.77 0.329c0.988 0.463 1.67 1.12 2.14 2.09 0.363 0.738 0.407 0.943 0.407 1.89 0 0.89-0.0543 1.18-0.329 1.77-0.726 1.55-2.11 2.49-3.77 2.57-0.544 0.0257-1.11-0.0258-1.43-0.129zm10.8-0.0853c-0.943-0.299-1.94-1.16-2.48-2.14-0.344-0.621-0.37-0.76-0.37-1.98 0-1.18 0.0331-1.38 0.336-1.95 0.512-0.97 1.57-1.87 2.56-2.17 1.04-0.321 1.68-0.319 2.73 0.0073 1.12 0.347 2.27 1.43 2.67 2.53 0.357 0.974 0.355 2.21-5e-3 3.18-0.407 1.09-1.52 2.15-2.64 2.51-1.03 0.335-1.78 0.339-2.8 0.0157z" fill="#11bb91" stroke-width=".125"/></svg>
