<?xml version="1.0" encoding="UTF-8"?>
<svg version="1.1" viewBox="0 0 50 50" width="50" height="50" xmlns="http://www.w3.org/2000/svg"><path d="m10 39.9 0.362-2.05-1.46-1.43c-0.805-0.787-1.44-1.45-1.41-1.48 0.0287-0.0287 0.92-0.176 1.98-0.327 1.06-0.151 1.98-0.335 2.04-0.409 0.0609-0.0738 0.499-0.929 0.974-1.9l0.863-1.77 1.9 3.79 1.87 0.262c1.03 0.144 1.9 0.243 1.92 0.22 0.027-0.0232-0.246-0.307-0.606-0.631-0.36-0.324-0.609-0.629-0.554-0.677 0.0559-0.0484 0.811-0.186 1.68-0.306 0.867-0.12 1.93-0.277 2.37-0.35l0.796-0.131 1.09-2.19c0.602-1.21 1.12-2.19 1.16-2.19 0.0365 0 0.559 0.986 1.16 2.19 1.04 2.09 1.11 2.19 1.51 2.26 0.23 0.0398 1.3 0.197 2.37 0.349 1.08 0.152 2 0.316 2.05 0.364 0.0543 0.0476-0.191 0.357-0.544 0.688-0.354 0.331-0.625 0.616-0.603 0.634 0.0219 0.0181 0.883-0.085 1.91-0.229l1.87-0.262 1.9-3.79 0.865 1.76c0.476 0.969 0.882 1.81 0.903 1.88 0.0212 0.0636 0.939 0.249 2.04 0.413 1.1 0.164 2.03 0.323 2.06 0.353 0.0308 0.0308-0.605 0.698-1.41 1.48l-1.47 1.43 0.357 2.05c0.196 1.13 0.34 2.05 0.318 2.05-0.0211 0-0.859-0.43-1.86-0.955l-1.82-0.955-1.83 0.964c-1.01 0.53-1.83 0.896-1.83 0.813 0-0.0832 0.15-1 0.333-2.04l0.333-1.89-2.94-2.94-2.05 2.05 0.396 2.28c0.218 1.25 0.396 2.37 0.396 2.48 0 0.205-0.335 0.0458-3.55-1.69l-0.841-0.453-0.925 0.486c-0.509 0.267-1.51 0.795-2.22 1.17-1.06 0.562-1.29 0.647-1.29 0.466 0-0.122 0.178-1.24 0.395-2.48l0.395-2.26-2.05-2.05-2.93 2.93 0.33 1.94c0.182 1.07 0.33 1.99 0.33 2.04-1.51e-4 0.0571-0.825-0.33-1.83-0.86l-1.83-0.964-1.82 0.955c-1 0.525-1.84 0.955-1.87 0.955-0.0238 0 0.12-0.922 0.318-2.05zm-1.92-14.7c0-1.01 0.249-2.05 0.71-2.96 0.412-0.814 1.58-1.98 2.37-2.36l0.592-0.286-0.245-0.269c-0.405-0.444-0.67-1.08-0.743-1.78-0.254-2.46 2.42-4.23 4.6-3.04 1.68 0.914 2.17 2.96 1.1 4.54-0.385 0.568-0.389 0.655-0.0297 0.753 0.156 0.0427 0.378 0.151 0.493 0.24 0.192 0.149 0.173 0.236-0.217 1.04-0.526 1.08-0.811 2.28-0.904 3.81l-0.0712 1.17h-7.66zm9.88-0.373c0.173-2.79 1.54-4.92 3.92-6.12 0.6-0.303 0.609-0.316 0.329-0.466-0.447-0.239-1.38-1.14-1.77-1.71-0.535-0.777-0.878-1.93-0.878-2.94 0-4.41 4.83-6.95 8.54-4.49 2.07 1.37 2.9 4.38 1.83 6.65-0.42 0.897-1.3 1.94-2.02 2.38l-0.435 0.269 0.611 0.308c2.46 1.24 3.94 3.71 3.95 6.56l0.0022 0.788h-14.2zm16.2 0.0058c-0.114-1.63-0.373-2.71-0.899-3.75-0.405-0.805-0.42-0.875-0.216-1.03 0.12-0.0929 0.346-0.204 0.502-0.246 0.3-0.082 0.379-0.355 0.145-0.5-0.0765-0.0473-0.275-0.377-0.44-0.733-0.712-1.53-0.136-3.24 1.37-4.06 1.73-0.945 3.88-0.0496 4.51 1.88 0.293 0.901 7.57e-4 2.22-0.651 2.93l-0.245 0.269 0.592 0.286c0.79 0.382 1.96 1.55 2.37 2.36 0.461 0.91 0.71 1.95 0.71 2.96v0.856h-7.66l-0.086-1.22z" fill="#11bb91" stroke-width=".126"/></svg>
