<?xml version="1.0" encoding="UTF-8"?>
<svg version="1.1" viewBox="0 0 50 50" width="50" height="50" xmlns="http://www.w3.org/2000/svg"><path d="m16.3 39.6c-0.254-0.28-0.265-0.644-0.0296-0.966 0.151-0.207 0.364-0.249 1.44-0.286l1.26-0.043v-3.1h-5.42c-5.29 0-5.43-6e-3 -5.75-0.259l-0.329-0.259v-12.1c0-11.9 0.00345-12.1 0.25-12.3 0.248-0.248 0.417-0.25 17.3-0.25s17 0.0025 17.2 0.25c0.247 0.247 0.25 0.417 0.25 12.3v12.1l-0.329 0.259c-0.321 0.253-0.458 0.259-5.56 0.259h-5.23v3.1l1.07 0.0441c0.886 0.0364 1.1 0.0863 1.25 0.287 0.246 0.336 0.222 0.651-0.0726 0.945-0.245 0.245-0.417 0.25-8.67 0.25-8 0-8.43-0.0114-8.62-0.229zm24.7-17v-11.1h-32v22.1h32zm-30.5 9.46c-0.189-0.208-0.207-1.06-0.207-9.67 0-8.99 0.011-9.45 0.229-9.65 0.21-0.19 1.4-0.207 14.5-0.207 14.1 0 14.3 0.0029 14.5 0.25 0.246 0.246 0.25 0.417 0.25 9.63s-0.0044 9.38-0.25 9.62c-0.247 0.247-0.417 0.25-14.5 0.25-13.7 0-14.3-0.0097-14.5-0.229zm19.6-2.69c0.092-0.0715 0.419-0.631 0.727-1.24l0.559-1.11 0.916 0.888c0.504 0.489 1.01 0.888 1.13 0.888s0.601-0.375 1.08-0.833c1.12-1.08 1.12-1.21 0.0191-2.33-0.464-0.474-0.788-0.886-0.719-0.915 0.574-0.247 2.25-1.27 2.36-1.44 0.0893-0.143 0.0924-0.326 0.0096-0.562-0.113-0.322-0.336-0.425-2.75-1.27-1.44-0.504-3.57-1.25-4.74-1.66-1.16-0.407-2.2-0.739-2.3-0.739-0.307 0-0.647 0.388-0.647 0.738 2.5e-4 0.262 2.61 7.97 3.15 9.3 0.217 0.536 0.732 0.659 1.21 0.289zm-0.528-2.88c-0.111-0.266-0.202-0.505-0.202-0.533 0-0.0272-0.366-1.09-0.812-2.36-0.447-1.27-0.812-2.37-0.812-2.43 0-0.116 5.46 1.7 5.67 1.88 0.0597 0.0528-0.137 0.22-0.437 0.372-1.56 0.79-1.61 1.1-0.39 2.38 1.18 1.24 1.14 1.36-0.0734 0.207-1.35-1.29-1.61-1.27-2.32 0.129l-0.422 0.838zm-4.77-5.27c0.264-0.264 0.248-0.718-0.0328-0.972-0.126-0.114-0.687-0.299-1.25-0.411-0.944-0.189-1.04-0.189-1.33 0.0035-0.424 0.278-0.434 0.869-0.0202 1.14 0.623 0.408 2.31 0.562 2.63 0.24zm0.222-2.71c0.109-0.0859 0.237-0.284 0.283-0.439 0.0686-0.231-0.0589-0.432-0.695-1.09-0.829-0.863-1.2-1-1.64-0.604-0.406 0.367-0.278 0.733 0.536 1.54 0.776 0.767 1.12 0.904 1.51 0.599zm2.91-0.467c0.205-0.226 0.211-0.332 0.0711-1.22-0.0843-0.534-0.231-1.09-0.327-1.24-0.413-0.648-1.31-0.389-1.31 0.379 0 0.67 0.271 1.88 0.475 2.11 0.252 0.292 0.808 0.277 1.09-0.0292z" fill="#11bb91" stroke-width=".125"/></svg>
