<svg width="202" height="56" fill="none" xmlns="http://www.w3.org/2000/svg"><g clip-rule="evenodd" fill-rule="evenodd"><path d="M9.9 10.3h8.82l8.9-8.9 8.9 8.9h8.74v8.82l8.9 8.9-8.9 8.82v8.82h-8.74l-8.9 8.9-8.9-8.9H9.9v-8.82L1 28.02l8.9-8.9z" fill="#007757"/><path d="M18.1 12.5h-5.99v5.99l-9.55 9.55 7.36 7.28 2.18 2.27v5.91h5.99l9.55 9.55 7.28-7.36 2.18-2.18h5.99V37.6l2.18-2.27 7.36-7.28-9.55-9.55v-5.99h-5.99l-2.18-2.18-7.28-7.36z" fill="#f9b000"/><path d="M27.6 50.3l22.2-22.2L27.6 5.8 5.3 28.1l1.78 1.7 14 14z" fill="#007757"/></g><path d="M37.4 18.2c-2.51-2.51-5.99-4.05-9.87-4.05-3.8 0-7.28 1.54-9.87 4.05-2.51 2.51-4.05 5.99-4.05 9.87 0 3.8 1.54 7.28 4.05 9.87 2.51 2.51 5.99 4.05 9.87 4.05 3.8 0 7.28-1.54 9.87-4.05 2.51-2.51 4.05-5.99 4.05-9.87s-1.54-7.36-4.05-9.87zm-9.79-5.99c4.37 0 8.33 1.78 11.2 4.61s4.61 6.8 4.61 11.2c0 4.37-1.78 8.33-4.61 11.2s-6.8 4.61-11.2 4.61c-4.37 0-8.33-1.78-11.2-4.61s-4.61-6.8-4.61-11.2c0-4.37 1.78-8.33 4.61-11.2s6.8-4.61 11.2-4.61z" fill="#f9b000"/><g clip-rule="evenodd" fill-rule="evenodd"><g fill="#f9b000"><path d="M38.6 18.1c-10.5 2.02-19 9.55-22.5 19.4-.486-.566-.89-1.13-1.29-1.78 3.96-9.55 12.7-16.7 23.3-18.2.162.162.324.404.486.566z"/><path d="M39.3 18.9c-10.1 2.75-18 10.7-20.8 20.9a9.13 9.13 0 01-1.62-1.46c3.24-10 11.7-17.6 22-20 .162.162.324.324.405.566z"/><path d="M39.9 19.7c-9.63 3.48-16.9 11.6-19 21.6-.566-.324-1.13-.647-1.7-.971 2.51-10.1 10.3-18.1 20.3-21.1.162.081.243.243.404.486z"/><path d="M16.5 18.1c10.5 2.02 19 9.55 22.5 19.4.486-.566.89-1.13 1.29-1.78-3.96-9.55-12.7-16.7-23.2-18.2-.243.162-.405.404-.566.566z"/><path d="M15.9 18.9c10.1 2.75 18 10.7 20.8 20.9a9.13 9.13 0 001.62-1.46c-3.24-10-11.7-17.6-22-20-.162.162-.243.324-.404.566z"/><path d="M15.2 19.7c9.63 3.48 16.9 11.6 19 21.6.566-.324 1.13-.647 1.7-.971-2.51-10.1-10.3-18.1-20.3-21.1-.08.081-.243.243-.404.486z"/></g><path d="M57.7 15.3h5.91v10h15.5v-10h5.91v25.2h-5.91V29.4h-15.5v11.2H57.7V15.3zm44.5 0h5.1l14.2 25.3h-6.72l-3.08-5.74H97.4l-2.99 5.74h-6.55zm7.44 15.7l-5.1-10.3L99.36 31zm14.9-15.7h5.91v21.2h14.1v4.05h-20zm26.7 14.5l-12.5-14.5h7.36l8.09 10 8.25-10h7.04l-12.4 14.5v10.8h-5.91zm21-14.5h5.91V26h.242l13.7-10.7h7.93l-15.5 11.7 16.5 13.6h-8.25l-14.3-12.4h-.323v12.4h-5.91z" fill="#007757"/><path d="M200 47.6v-1.05h-2.431c-.081.08-.081.162-.081.162v.647s0 .08.081.08h2.423zm1.21-1.86v4.45H200v-1.62h-.81l-1.54 1.62h-1.78l.162-.162 1.62-1.46h-.728c-.162 0-.323-.08-.404-.162s-.162-.162-.243-.324c-.081-.08-.081-.243-.081-.404v-1.05c0-.08 0-.243.081-.324 0-.162.081-.243.243-.404a.616.616 0 01.404-.162h4.205zm-14-.162h1.13v3.07l3.48-3.07h.971v4.53h-1.21v-3.07l-3.48 3.07h-.971v-4.53zm-9.14 0h1.13v1.7h2.99v-1.7h1.21v4.53h-1.21v-1.78h-2.99v1.86h-1.21v-4.53h.081zm-6.07 1.21l-.809 1.46h1.62zm-2.99 3.32l2.51-4.37v-.08h1.13v.08l2.51 4.37.081.162h-1.38v-.08l-.486-.89h-2.67l-.486.89v.08h-1.29zm-8.17 0v-4.45h5.26v4.53h-1.21v-3.56h-2.83v3.56h-1.21zm-6.47-1.86l1.94-2.59h.971v4.53h-1.13v-2.83s0 .08-.08.08l-1.62 2.18v.082h-.404v-.081l-1.62-2.18-.081-.081v2.83h-.971v-4.53h.971zm-10.9-1.62v2.59h3.16v-2.59zm-.971 3.32c-.242-.243-.242-.728-.242-.89v-2.754c0-.162.08-.324.242-.485l.486-.243h4.211c.162 0 .323.081.485.243.243.243.243.728.243.89v2.754c0 .162-.081.324-.243.486-.162.08-.323.162-.485.243h-4.211c-.243 0-.405-.08-.486-.243zm-7.6-4.37h1.13v1.7l2.26-1.7h1.78l-.243.162-2.83 2.02 3.16 2.27.243.162h-1.94l-2.51-1.78v1.78h-1.13v-4.53h.081zm-9.38 2.02v-1.05h-2.431c-.081.08-.081.162-.081.162v.647s0 .08.081.08h2.423zm1.21-1.86v4.45h-1.21v-1.62h-.809l-1.54 1.62h-1.78l.162-.162 1.62-1.46h-.728c-.162 0-.324-.08-.405-.162s-.162-.162-.243-.324c-.081-.08-.081-.243-.081-.404v-1.05c0-.08 0-.243.081-.324 0-.162.081-.243.243-.404a.62.62 0 01.405-.162h4.204zm-10.7 1.05l-.809 1.46h1.62zm-2.99 3.32l2.51-4.37v-.08h1.13v.08l2.51 4.37.081.162h-1.38v-.08l-.486-.89h-2.67l-.485.89v.08h-1.29zm-3.88-3.56c-.081-.08-.162-.08-.243-.08h-2.26v.808h2.51l.081-.08v-.487l-.081-.162c.081.081 0 .081 0 0zm-.243 1.78h-2.18v.89h2.18c.081 0 .243 0 .324-.08 0 0 0-.082.081-.082v-.648s0-.08-.081-.08h-.324zm-3.48 1.78v-4.45h3.96c.161 0 .323 0 .404.08.162 0 .243.082.324.163s.162.243.243.324c0 .162.08.243.08.324V47.358c0 .08-.08.243-.161.324s-.162.08-.243.162c.081.08.162.08.243.162s.161.162.161.324c.081.08.081.243.081.404v.566c0 .162 0 .243-.081.405a.627.627 0 01-.323.324c-.081.08-.243.162-.405.162s-.323.08-.566.08h-3.64v-.161zm-7.93-3.48v2.59h3.16v-2.59zm-.971 3.32c-.243-.243-.243-.728-.243-.89v-2.754c0-.162.08-.324.243-.485.162-.08.324-.162.485-.243h4.212c.162 0 .324.081.486.243.242.243.242.728.242.89v2.754c0 .162-.081.324-.242.486l-.486.243H97.02c-.243 0-.404-.08-.485-.243zm-5.74-2.91l1.29-1.38h1.54l-.162.162-1.86 1.94 2.27 2.35.162.162h-1.7l-1.54-1.62-1.38 1.62h-1.54l.162-.162 2.02-2.18-2.02-2.1-.162-.162h1.7zm-7.93-.243l-.809 1.46h1.62zm-3.07 3.32l2.51-4.37v-.08h1.13v.08l2.51 4.37.08.162h-1.29v-.08l-.484-.89H81.5l-.486.89v.08h-1.29zm-2.83-3.56h-2.342v.971h2.422c.082-.08.082-.162.082-.162v-.566s0-.08-.081-.08c0-.082 0-.082-.081-.163zm-3.56 3.56v-4.45h4.285c.162 0 .243.08.404.162s.243.243.243.404.08.243.08.404v1.214c0 .162-.08.324-.242.405-.162.08-.324.162-.485.162H74.696v1.7h-1.13zm-2.75-3.48h-1.94v3.56h-1.21v-3.56h-2.02v-.971h5.26v.971zm-8.9.728v-.728h-2.59v2.59h2.59v-1.05h.162l1.05.243h.08v.97c0 .162-.08.324-.242.486l-.485.243h-3.561c-.162 0-.324-.08-.485-.243-.243-.243-.243-.728-.243-.89V46.23c0-.162.08-.324.243-.485.162-.08.324-.162.485-.243H62.32c.162 0 .324.08.485.243.243.243.243.728.243.89v.486h-.081l-1.05.162h-.08v.08zM201 10.3h-1.13V5.69h1.21v4.61zm-3.48-2.1h-2.262v1.05h2.262c.081 0 .081 0 .162-.08V8.44s0-.08-.081-.08c0-.082 0-.163-.081-.163zm-3.4-2.51h1.13v1.54h2.35c.324 0 .728 0 1.05.324.081.08.162.162.162.324 0 .08.08.243.08.324v1.13c0 .08 0 .162-.08.324 0 .162-.081.243-.243.405a.875.875 0 01-.566.243h-3.966v-4.61zm-3.24 1.78v-.728h-2.59v2.59h2.59v-.971h.162l1.05.243h.081v.971c0 .162-.081.324-.242.485l-.486.243h-3.561c-.162 0-.323-.08-.485-.243-.243-.243-.243-.728-.243-.89V6.415c0-.162.081-.324.243-.485.162-.08.323-.162.485-.243H191.445c.162 0 .324.08.486.243.242.243.242.728.242.89v.485h-.081l-1.05.162h-.081zm-7.04.243v-1.05h-2.431c-.081.08-.081.162-.081.162v.647s0 .08.081.08h2.422zm1.21-1.94v4.53h-1.21v-1.62h-.809l-1.54 1.62h-1.78l.162-.162 1.62-1.46h-.728c-.162 0-.324-.08-.405-.162s-.162-.162-.243-.324c-.081-.08-.081-.243-.081-.405V6.66c0-.08 0-.243.081-.324 0-.162.081-.243.243-.405a.62.62 0 01.405-.162h4.204zm-12.5-.08h1.13v3.07l3.48-3.07h.971v4.61h-1.21v-3.16l-3.48 3.07h-.971v-4.53zm-7.52 0h1.13v1.7h2.99v-1.7h1.21v4.61h-1.21v-1.86h-2.99v1.86h-1.21v-4.61zm-4.53 1.21l-.809 1.46h1.62zm-3.07 3.24l2.51-4.37V5.69h1.13v.081l2.51 4.37.081.162h-1.38v-.08l-.486-.89h-2.67l-.486.89v.08h-1.29zm-6.55.08v-4.53h5.26v4.61h-1.21v-3.56h-2.83v3.56h-1.21zm-4.94-1.94l1.94-2.59h.97v4.61h-1.13v-2.83s0 .08-.081.08l-1.62 2.18v.082h-.405v-.081l-1.62-2.18-.081-.081v2.83h-.971v-4.61h.971zm-9.38-1.54v2.59h3.16v-2.59zm-.971 3.32c-.243-.243-.243-.728-.243-.89V6.418c0-.162.081-.324.243-.485.162-.08.323-.162.485-.243h4.211c.162 0 .324.08.486.243.243.243.243.728.243.89v2.755c0 .162-.081.324-.243.485l-.486.243h-4.211c-.162-.08-.323-.08-.485-.243zm-6.07-4.37h1.13v1.7l2.26-1.7h1.78l-.162.162-2.83 2.02 3.16 2.27.242.162h-1.94l-2.51-1.78v1.78h-1.21v-4.61zm-11.2 0h1.05v1.86h2.83v-1.86h1.21v3.56c0 .162 0 .324-.081.485s-.081.243-.162.324c-.161.08-.323.162-.404.243H118.963c-.162 0-.323-.08-.485-.243-.243-.243-.243-.728-.243-.89v-.243h.081l.971-.162h.081v.647h2.83v-.809H118.883a.615.615 0 01-.404-.162c-.243-.243-.243-.728-.243-.89v-1.86zm-2.83.971h-2.342v.971h2.423c.081-.08.081-.162.081-.162v-.647s0-.08-.081-.08c0-.082-.081-.082-.081-.082zm-3.56 3.56v-4.53h4.284c.162 0 .243.08.405.162.162.08.243.243.243.405s.081.243.081.405v1.295a.445.445 0 01-.243.405c-.162.08-.324.162-.486.162h-2.993v1.78h-1.3zm-2.18.08h-1.13v-4.61h1.21v4.61zm-3.48-2.1h-2.262v1.05h2.262c.081 0 .081 0 .162-.08v-.728s0-.08-.081-.08c0-.082 0-.163-.081-.163zm-3.4-2.51h1.13v1.54h2.35c.323 0 .728 0 1.05.325.081.08.161.162.161.324 0 .08.081.243.081.324v1.13c0 .08 0 .162-.081.324 0 .162-.08.243-.242.405a.875.875 0 01-.567.243h-3.965v-4.61zm-4.29 1.21l-1.21 2.43h2.43zm-2.35 2.43l1.78-3.56v-.08h1.13v.08l1.86 3.56h.566v1.78h-1.13v-.808h-3.56v.809h-1.21v-1.78h.08zm-7.12-3.64h1.13v1.7h2.99v-1.7h1.21v4.61h-1.21v-1.86h-2.99v1.86h-1.21v-4.61zm-4.53 1.21l-.809 1.46h1.62zm-2.99 3.24l2.51-4.37v-.08h1.13v.08l2.51 4.37.08.163h-1.38v-.081l-.484-.89h-2.67l-.485.89v.08h-1.29zm.243-3.4h-1.94v3.56h-1.21v-3.56h-2.02v-1.05h5.26v.972h-.08zm-15 .163l-.809 1.46h1.62zm-3.07 3.24l2.51-4.37v-.081h1.13v.08l2.51 4.37.08.163h-1.38v-.081l-.485-.89h-2.67l-.485.89v.08h-1.29zm12.9 0h.728l-.081.162-.809 1.21v.08h-.89v-.161l.324-1.13h-1.05l-2.51-1.78v1.78h-1.21v-4.61h1.21v1.7l2.27-1.7h1.94l-.324.162-2.75 2.02zm-15.3-2.67v-.728h-2.59v2.59h2.59v-.971h.162l.971.243h.08v.971c0 .162-.08.324-.242.485-.162.08-.324.162-.485.243H58.287c-.162 0-.324-.081-.485-.243-.243-.243-.243-.728-.243-.89V6.422c0-.162.08-.324.243-.485l.485-.243h3.561c.162 0 .324.08.485.243.243.243.243.728.243.89v.485h-.081l-1.05.162z" fill="#000"/></g></svg>